<svg width="1295" height="516" viewBox="0 0 1295 516" fill="none" xmlns="http://www.w3.org/2000/svg">
<g clip-path="url(#clip0_16_52)">
<path d="M250.01 77C300.683 77 349.279 96.0469 385.11 129.95C420.941 163.854 441.07 209.837 441.07 257.784C441.07 305.731 420.941 351.714 385.11 385.618C349.28 419.521 300.683 438.568 250.01 438.568L250.01 257.784L250.01 77Z" fill="url(#paint0_linear_16_52)"/>
<path d="M222.06 439C171.388 439 122.791 419.953 86.9601 386.05C51.1294 352.146 30.9999 306.163 30.9999 258.216C30.9999 210.269 51.1294 164.286 86.9601 130.382C122.791 96.4787 171.388 77.4319 222.06 77.4319L222.06 258.216L222.06 439Z" fill="url(#paint1_radial_16_52)"/>
<path d="M571.25 170.5C581.083 168.583 590.792 167.167 600.375 166.25C609.958 165.333 620.083 164.875 630.75 164.875C659.667 164.875 681.333 170.167 695.75 180.75C710.167 191.333 717.375 207.833 717.375 230.25C717.375 274.083 688.667 296 631.25 296C625 296 617 295.708 607.25 295.125V352H571.25V170.5ZM631.5 270.25C643.5 270.25 653.208 268.833 660.625 266C668.125 263.167 673.583 258.833 677 253C680.5 247.167 682.25 239.625 682.25 230.375C682.25 216.625 678.292 206.583 670.375 200.25C662.542 193.833 650.375 190.625 633.875 190.625C624.458 190.625 615.583 191.333 607.25 192.75V268.625C614.917 269.708 623 270.25 631.5 270.25ZM810.025 354.5C795.359 354.5 782.609 351.833 771.775 346.5C760.942 341.167 752.567 333.208 746.65 322.625C740.734 312.042 737.775 299.125 737.775 283.875C737.775 268.625 740.65 255.75 746.4 245.25C752.234 234.75 760.525 226.833 771.275 221.5C782.109 216.167 795.025 213.5 810.025 213.5C825.109 213.5 838.025 216.167 848.775 221.5C859.609 226.75 867.9 234.625 873.65 245.125C879.4 255.542 882.275 268.458 882.275 283.875C882.275 298.958 879.275 311.792 873.275 322.375C867.359 332.958 858.942 340.958 848.025 346.375C837.192 351.792 824.525 354.5 810.025 354.5ZM810.025 327.25C834.775 327.25 847.15 312.833 847.15 284C847.15 269 843.984 258.083 837.65 251.25C831.317 244.333 822.109 240.875 810.025 240.875C798.025 240.875 788.817 244.292 782.4 251.125C776.067 257.958 772.9 268.833 772.9 283.75C772.9 312.75 785.275 327.25 810.025 327.25ZM912.387 352V150H947.637V352H912.387ZM1050.75 354.5C1036.08 354.5 1023.33 351.833 1012.5 346.5C1001.66 341.167 993.29 333.208 987.373 322.625C981.456 312.042 978.498 299.125 978.498 283.875C978.498 268.625 981.373 255.75 987.123 245.25C992.956 234.75 1001.25 226.833 1012 221.5C1022.83 216.167 1035.75 213.5 1050.75 213.5C1065.83 213.5 1078.75 216.167 1089.5 221.5C1100.33 226.75 1108.62 234.625 1114.37 245.125C1120.12 255.542 1123 268.458 1123 283.875C1123 298.958 1120 311.792 1114 322.375C1108.08 332.958 1099.66 340.958 1088.75 346.375C1077.91 351.792 1065.25 354.5 1050.75 354.5ZM1050.75 327.25C1075.5 327.25 1087.87 312.833 1087.87 284C1087.87 269 1084.71 258.083 1078.37 251.25C1072.04 244.333 1062.83 240.875 1050.75 240.875C1038.75 240.875 1029.54 244.292 1023.12 251.125C1016.79 257.958 1013.62 268.833 1013.62 283.75C1013.62 312.75 1026 327.25 1050.75 327.25ZM1198.71 354.5C1180.21 354.5 1163.84 352.458 1149.59 348.375V323.75C1165.09 328.083 1181.42 330.25 1198.59 330.25C1210 330.25 1218.17 328.833 1223.09 326C1228.09 323.167 1230.59 319 1230.59 313.5C1230.59 309.25 1229.34 306 1226.84 303.75C1224.34 301.5 1219.79 299.875 1213.21 298.875L1187.71 295.125C1173.21 292.958 1162.75 288.667 1156.34 282.25C1149.92 275.833 1146.71 267.208 1146.71 256.375C1146.71 243.042 1152.34 232.583 1163.59 225C1174.92 217.333 1192.17 213.5 1215.34 213.5C1222.59 213.5 1229.79 213.958 1236.96 214.875C1244.21 215.792 1250.71 217.042 1256.46 218.625V243.25C1243.79 239.667 1230.17 237.875 1215.59 237.875C1202.42 237.875 1193.25 239.375 1188.09 242.375C1182.92 245.375 1180.34 249.542 1180.34 254.875C1180.34 258.708 1181.59 261.833 1184.09 264.25C1186.59 266.667 1190.96 268.417 1197.21 269.5L1222.71 273.25C1236.88 275.333 1247.34 279.333 1254.09 285.25C1260.84 291.167 1264.21 300 1264.21 311.75C1264.21 320.583 1261.71 328.208 1256.71 334.625C1251.79 341.042 1244.42 345.958 1234.59 349.375C1224.84 352.792 1212.88 354.5 1198.71 354.5Z" fill="#7C00FE"/>
</g>
<defs>
<linearGradient id="paint0_linear_16_52" x1="250.01" y1="77" x2="250.01" y2="438.568" gradientUnits="userSpaceOnUse">
<stop stop-color="#7C00FE"/>
<stop offset="0.889423" stop-color="#00A1C1"/>
<stop offset="1" stop-color="#00A1C1"/>
</linearGradient>
<radialGradient id="paint1_radial_16_52" cx="0" cy="0" r="1" gradientUnits="userSpaceOnUse" gradientTransform="translate(222.06 258.216) rotate(90) scale(180.784 191.06)">
<stop offset="0.93" stop-color="#00A1C1"/>
<stop offset="1" stop-color="#7C00FE"/>
</radialGradient>
<clipPath id="clip0_16_52">
<rect width="1295" height="516" fill="white"/>
</clipPath>
</defs>
</svg>
